<svg xmlns="http://www.w3.org/2000/svg" id="Layer_4" viewBox="0 0 1089.3 200"><style>.st0{fill:none}.st1{fill:#ffc107}.st2{fill:#0f9d58}.st3{fill:#bf360c}.st3,.st4,.st5{opacity:.2;enable-background:new}.st4{fill:#263238}.st5{fill:#fff}.st6{fill:url(#XMLID_91_)}.st7{fill:url(#XMLID_92_)}.st8{fill:#4285f4}.st9{fill:#db4437}.st10,.st11{opacity:.2;fill:#1a237e;enable-background:new}.st11{fill:#3e2723}.st12{fill:url(#XMLID_93_)}.st13{fill:#767676}</style><g id="XMLID_1_"><g id="XMLID_50_"><g id="XMLID_72_"><path id="XMLID_7_" d="M122.5 90.6L70.1 0H0l57.8 100L0 200h70.1l52.4-90.6c3.3-5.8 3.3-13 0-18.8z" class="st0"/><path id="XMLID_80_" d="M92.4 159.8l-16.6-28.7L35.9 200h34.2l22.8-39.4z" class="st1"/><path id="XMLID_8_" d="M122.5 90.6L70.1 0H0l57.8 100L0 200h70.1l52.4-90.6c3.3-5.8 3.3-13 0-18.8z" class="st0"/><path id="XMLID_39_" d="M57.8 100l18 31.1L35.9 200H0z" class="st2"/><path id="XMLID_9_" d="M122.5 90.6L70.1 0H0l57.8 100L0 200h70.1l52.4-90.6c3.3-5.8 3.3-13 0-18.8z" class="st0"/><path id="XMLID_38_" d="M70.1 198.4H36.8l-.9 1.6h34.2l22.8-39.4-.5-.8z" class="st3"/><path id="XMLID_10_" d="M122.5 90.6L70.1 0H0l57.8 100L0 200h70.1l52.4-90.6c3.3-5.8 3.3-13 0-18.8z" class="st0"/><path id="XMLID_37_" d="M.9 198.4L0 200h35.9l.9-1.6z" class="st4"/><path id="XMLID_11_" d="M122.5 90.6L70.1 0H0l57.8 100L0 200h70.1l52.4-90.6c3.3-5.8 3.3-13 0-18.8z" class="st0"/><path id="XMLID_36_" d="M0 200h.9l57.4-99.2-.5-.8z" class="st5"/><path id="XMLID_12_" d="M122.5 90.6L70.1 0H0l57.8 100L0 200h70.1l52.4-90.6c3.3-5.8 3.3-13 0-18.8z" class="st0"/><radialGradient id="XMLID_91_" cx="255.347" cy="61.086" r="44.264" gradientTransform="matrix(1.5625 0 0 -1.5625 -306.36 255.406)" gradientUnits="userSpaceOnUse"><stop offset="0" stop-color="#BF360C" stop-opacity=".2"/><stop offset="1" stop-color="#BF360C" stop-opacity=".02"/></radialGradient><path id="XMLID_79_" d="M92.9 160.6l-17.1-29.5-4.2 7.2z" class="st6"/><path id="XMLID_13_" d="M122.5 90.6L70.1 0H0l57.8 100L0 200h70.1l52.4-90.6c3.3-5.8 3.3-13 0-18.8z" class="st0"/><radialGradient id="XMLID_92_" cx="255.222" cy="60.806" r="44.623" gradientTransform="matrix(1.5625 0 0 -1.5625 -306.36 255.406)" gradientUnits="userSpaceOnUse"><stop offset="0" stop-color="#263238" stop-opacity=".2"/><stop offset="1" stop-color="#263238" stop-opacity=".02"/></radialGradient><path id="XMLID_78_" d="M71.6 138.3l4.2-7.2-18-31.1-8.5 14.8z" class="st7"/><path id="XMLID_14_" d="M122.5 90.6L70.1 0H0l57.8 100L0 200h70.1l52.4-90.6c3.3-5.8 3.3-13 0-18.8z" class="st0"/><g id="XMLID_75_"><g id="XMLID_76_"><path id="XMLID_77_" d="M35.9 0H0l92.9 160.6 17.9-31.1z" class="st8"/></g></g><path id="XMLID_15_" d="M122.5 90.6L70.1 0H0l57.8 100L0 200h70.1l52.4-90.6c3.3-5.8 3.3-13 0-18.8z" class="st0"/><path id="XMLID_35_" d="M122.5 109.4c3.4-5.8 3.4-13 0-18.8L70.1 0H35.9l74.9 129.5 11.7-20.1z" class="st9"/><path id="XMLID_16_" d="M122.5 90.6L70.1 0H0l57.8 100L0 200h70.1l52.4-90.6c3.3-5.8 3.3-13 0-18.8z" class="st0"/><path id="XMLID_34_" d="M110.8 129.5l-.4-.8L92.9 159 .9 0H0l92.9 160.6 17.9-31.1z" class="st10"/><path id="XMLID_17_" d="M122.5 90.6L70.1 0H0l57.8 100L0 200h70.1l52.4-90.6c3.3-5.8 3.3-13 0-18.8z" class="st0"/><path id="XMLID_2_" d="M70.1 1.6l52.4 90.6c1.5 2.7 2.3 5.6 2.5 8.6.1-3.5-.7-7-2.5-10.2L70.1 0H0l.9 1.6h69.2z" class="st5"/><path id="XMLID_18_" d="M122.5 90.6L70.1 0H0l57.8 100L0 200h70.1l52.4-90.6c3.3-5.8 3.3-13 0-18.8z" class="st0"/><path id="XMLID_74_" d="M110.8 129.5l11.6-20.1c1.8-3.1 2.6-6.7 2.5-10.2-.1 3-.9 5.9-2.5 8.6l-12.1 20.9.5.8z" class="st11"/><path id="XMLID_19_" d="M122.5 90.6L70.1 0H0l57.8 100L0 200h70.1l52.4-90.6c3.3-5.8 3.3-13 0-18.8z" class="st0"/><radialGradient id="XMLID_93_" cx="195.071" cy="162.46" r="134.35" gradientTransform="matrix(1.5625 0 0 -1.5625 -306.36 255.406)" gradientUnits="userSpaceOnUse"><stop offset="0" stop-color="#FFF" stop-opacity=".1"/><stop offset="1" stop-color="#FFF" stop-opacity="0"/></radialGradient><path id="XMLID_73_" d="M122.5 90.6L70.1 0H0l57.8 100L0 200h70.1l52.4-90.6c3.3-5.8 3.3-13 0-18.8z" class="st12"/></g></g></g><g id="XMLID_6_"><path id="XMLID_3_" d="M359.9 104.4c0 22-6.5 39.6-19.6 52.7-14.8 15.6-34.1 23.4-57.9 23.4-22.8 0-42.1-7.9-58.1-23.7-15.9-15.8-23.9-35.4-23.9-58.7s8-42.9 23.9-58.7c15.9-15.8 35.3-23.7 58.1-23.7 11.3 0 22.1 2.2 32.4 6.6 10.3 4.4 18.5 10.3 24.7 17.6l-13.9 13.9C315.1 41.2 300.7 35 282.3 35c-16.6 0-31 5.8-43.1 17.5C227.1 64.2 221 79.3 221 98s6.1 33.8 18.2 45.5 26.5 17.5 43.1 17.5c17.6 0 32.3-5.9 44.1-17.6 7.6-7.6 12-18.3 13.2-31.9h-57.3v-19h76.4c.8 4.1 1.2 8.1 1.2 11.9z" class="st13"/><path id="XMLID_20_" d="M380.3 176.9V19.1h48.2c24.2 0 43.6 7.3 58.2 21.9 14.5 14.6 21.8 33.6 21.8 57s-7.3 42.3-21.8 57c-14.5 14.6-33.9 21.9-58.2 21.9h-48.2zm20.3-19.4h28c18.2 0 32.6-5.2 43.3-15.6 10.6-10.4 16-25 16-43.8 0-18.7-5.3-33.2-16-43.7s-25.1-15.8-43.3-15.8h-28v118.9z" class="st13"/><path id="XMLID_23_" d="M681 104.4c0 22-6.5 39.6-19.6 52.7-14.8 15.6-34.1 23.4-57.9 23.4-22.8 0-42.1-7.9-58.1-23.7-15.9-15.8-23.9-35.4-23.9-58.7s8-42.9 23.9-58.7c15.9-15.8 35.3-23.7 58.1-23.7 11.3 0 22.1 2.2 32.4 6.6 10.3 4.4 18.5 10.3 24.7 17.6l-13.9 13.9C636.2 41.2 621.8 35 603.4 35c-16.6 0-31 5.8-43.1 17.5-12.1 11.7-18.2 26.8-18.2 45.5s6.1 33.8 18.2 45.5 26.5 17.5 43.1 17.5c17.6 0 32.3-5.9 44.1-17.6 7.6-7.6 12-18.3 13.2-31.9h-57.3v-19h76.4c.8 4.1 1.2 8.1 1.2 11.9z" class="st13"/><path id="XMLID_25_" d="M755 176.9V19.1h20.3v138.4h68.3v19.4H755z" class="st13"/><path id="XMLID_27_" d="M875.6 176.9L832 68.9h22l31.7 83.7h.4l32.2-83.7H940l-44.1 108h-20.3z" class="st13"/><path id="XMLID_29_" d="M970.8 41.8c-2.8 2.8-6.2 4.2-10.1 4.2s-7.3-1.4-10.1-4.2c-2.8-2.8-4.2-6.2-4.2-10.1s1.4-7.3 4.2-10.1c2.8-2.8 6.2-4.2 10.1-4.2s7.3 1.4 10.1 4.2c2.8 2.8 4.2 6.2 4.2 10.1s-1.4 7.3-4.2 10.1zm0 135.1h-20.3v-108h20.3v108z" class="st13"/><path id="XMLID_32_" d="M1025 176.9l-43.6-108h22l31.7 83.7h.4l32.2-83.7h21.6l-44.1 108H1025z" class="st13"/></g></svg>